mtllib 167037-TGP-54-MVL3-MOD-C-ST-045400.mtl
v 2.731450 0.295060 1.580804
v 0.256450 0.295060 1.580804
v 0.256450 0.295060 0.530804
v 2.731450 0.295060 0.530804
v 2.731450 0.320060 1.605804
v 0.256450 0.320060 1.605804
v 2.731450 0.570060 1.605804
v 0.256450 0.570060 1.605804
v 2.731450 0.595060 1.580804
v 0.256450 0.595060 1.580804
v 2.731450 0.595060 0.930804
v 0.256450 0.595060 0.930804
v 2.731450 0.620060 0.905804
v 0.256450 0.620060 0.905804
v 2.731450 1.570060 0.905804
v 0.256450 1.570060 0.905804
v 2.731450 1.595060 0.880804
v 0.256450 1.595060 0.880804
v 2.731450 1.595060 0.530804
v 0.256450 1.595060 0.530804
v 0.256450 0.320060 0.505804
v 0.256450 1.570060 0.505804
v 2.731450 1.570060 0.505804
v 2.731450 0.320060 0.505804
vn -0.000000 -1.000000 0.000000
vn -0.000000 -0.707107 0.707107
vn 0.000000 0.000000 1.000000
vn 0.000000 0.707107 0.707107
vn 0.000000 1.000000 0.000000
vn 0.000000 0.000000 1.000000
vn 0.000000 0.707107 0.707107
vn 0.000000 1.000000 0.000000
vn -1.000000 0.000000 0.000000
vn 1.000000 -0.000000 0.000000
vn 0.000000 0.707107 -0.707107
vn 0.000000 0.000000 -1.000000
vn -0.000000 -0.707107 -0.707107
usemtl PModel_ParapetR_167037-TGP-54-MVL3-MOD-C-ST-045400.dgn_Model_255_255_255_vis
f 1//1 2//1 3//1
f 3//1 4//1 1//1
f 5//2 6//2 2//2
f 2//2 1//2 5//2
f 7//3 8//3 6//3
f 6//3 5//3 7//3
f 9//4 10//4 8//4
f 8//4 7//4 9//4
f 11//5 12//5 10//5
f 10//5 9//5 11//5
f 13//4 14//4 12//4
f 12//4 11//4 13//4
f 15//6 16//6 14//6
f 14//6 13//6 15//6
f 17//7 18//7 16//7
f 16//7 15//7 17//7
f 19//8 20//8 18//8
f 18//8 17//8 19//8
f 21//9 3//9 12//9
f 12//9 14//9 21//9
f 6//9 8//9 10//9
f 10//9 12//9 6//9
f 12//9 2//9 6//9
f 12//9 3//9 2//9
f 18//9 20//9 22//9
f 22//9 21//9 18//9
f 16//9 18//9 21//9
f 21//9 14//9 16//9
f 19//10 17//10 15//10
f 15//10 13//10 19//10
f 23//10 19//10 13//10
f 13//10 24//10 23//10
f 11//10 9//10 7//10
f 4//10 24//10 13//10
f 13//10 11//10 4//10
f 1//10 4//10 11//10
f 1//10 11//10 7//10
f 7//10 5//10 1//10
f 23//11 22//11 20//11
f 20//11 19//11 23//11
f 24//12 21//12 22//12
f 22//12 23//12 24//12
f 4//13 3//13 21//13
f 21//13 24//13 4//13

